<svg xmlns="http://www.w3.org/2000/svg" version="1.1" viewBox="0 0 64 64" width="24" height="24">
  <path fill="#000000" d="M56.53 12.66C56.56 7.72 53.15 3.53 47.98 3.52Q34.89 3.51 21.03 3.52A1.52 1.52 0 0 1 19.52 1.85Q19.56 1.46 19.76 1.09A1.21 1.21 0 0 1 20.81 0.48Q31.67 0.62 45.46 0.44C54.34 0.33 59.61 4.58 59.56 13.80Q59.44 35.49 59.51 54.03A1.30 1.28 -24.5 0 1 59.18 54.89Q58.62 55.52 58.00 55.48Q56.55 55.38 56.54 53.93Q56.43 31.25 56.53 12.66Z"/>
  <path fill="#000000" d="M37.52 11.52L12.99 11.52A3.49 3.49 0 0 0 9.50 15.01L9.50 56.26Q9.50 60.52 13.76 60.52L44.74 60.52A3.76 3.76 0 0 0 48.50 56.76L48.50 26.87Q48.50 25.71 49.65 25.56L50.19 25.49Q51.49 25.33 51.49 26.64Q51.52 41.49 51.47 56.36C51.46 61.18 48.49 63.52 44.09 63.52Q28.04 63.52 13.90 63.50C9.45 63.50 6.47 60.93 6.48 56.76Q6.53 35.70 6.50 15.14C6.49 11.42 9.42 8.45 13.17 8.49Q24.69 8.62 36.69 8.44Q42.14 8.36 44.80 9.60Q50.84 12.39 51.52 19.76A1.61 1.61 0 0 1 49.84 21.52C47.67 21.43 45.18 21.82 43.14 21.16Q37.81 19.43 38.57 12.69Q38.70 11.52 37.52 11.52ZM42.10 11.75Q41.61 11.60 41.55 12.11Q41.26 14.45 41.84 16.33Q42.46 18.31 44.53 18.43L47.00 18.56Q48.65 18.65 48.02 17.13Q46.31 13.06 42.10 11.75Z"/>
</svg>
